REM MD5 01d631fb867bd8839a792c53fde91dc7
FILE "PlayStation Underground Jampack - Fall 2001 (USA).bin" BINARY
  TRACK 01 MODE2/2352
    INDEX 01 00:00:00
  TRACK 02 AUDIO
    INDEX 00 52:19:62
    INDEX 01 52:21:62
  TRACK 03 AUDIO
    INDEX 00 54:35:63
    INDEX 01 54:37:63
REM LEADOUT 54:43:59
